<svg width="410" height="227" viewBox="0 0 410 227" fill="none" xmlns="http://www.w3.org/2000/svg">
<path d="M11.6479 153.163V139.627L71.3665 45.1386H81.1868V66.1064H74.5514L29.4308 137.503V138.565H109.852V153.163H11.6479ZM75.6131 181.031V149.049V142.745V45.1386H91.2726V181.031H75.6131Z" fill="#1D4289"/>
<path d="M300.83 153.163V139.627L360.548 45.1386H370.369V66.1064H363.733L318.612 137.503V138.565H399.033V153.163H300.83ZM364.795 181.031V149.049V142.745V45.1386H380.454V181.031H364.795Z" fill="#1D4289"/>
<path d="M286.985 121.625C286.985 156.317 265.439 185.972 234.993 197.943C234.574 198.117 234.155 198.28 233.725 198.432C224.79 201.782 215.111 203.609 205.001 203.609C195.636 203.609 186.643 202.038 178.267 199.153C177.906 199.025 177.546 198.897 177.185 198.769C156.116 191.172 139.061 175.187 130.045 154.851C129.417 153.467 128.835 152.059 128.3 150.628C124.891 141.612 123.018 131.839 123.018 121.625C123.018 108.549 126.078 96.182 131.546 85.211C132.233 83.792 132.977 82.407 133.768 81.035C143.063 64.759 157.769 51.974 175.452 45.156C176.127 44.877 176.801 44.633 177.488 44.388C186.085 41.317 195.346 39.653 205.002 39.653C209.26 39.653 213.448 39.979 217.532 40.607C218.428 40.747 219.3 40.886 220.184 41.061C229.921 42.876 239.042 46.424 247.233 51.357C248.21 51.939 249.164 52.543 250.107 53.172C267.767 64.817 280.658 83.129 285.195 104.524C285.567 106.257 285.881 108.014 286.137 109.794C286.694 113.656 286.985 117.612 286.985 121.625Z" fill="#FF8035"/>
<path d="M286.135 109.794C285.879 108.014 285.565 106.257 285.193 104.524C281.103 85.236 270.209 68.472 255.166 56.821C270.345 75.978 276.874 98.527 259.459 123.405C238.518 152.49 196.636 159.47 166.388 143.182C144.148 131.207 130.735 106.025 133.504 81.508C132.813 82.726 132.153 83.954 131.545 85.211C126.077 96.182 123.017 108.548 123.017 121.625C123.017 131.84 124.89 141.612 128.299 150.628C128.834 152.059 129.416 153.467 130.044 154.851C139.06 175.187 156.115 191.172 177.184 198.769C177.545 198.897 177.905 199.025 178.266 199.153C186.642 202.038 195.635 203.609 205 203.609C215.11 203.609 224.789 201.782 233.724 198.432C234.155 198.281 234.573 198.118 234.992 197.943C265.438 185.972 286.984 156.317 286.984 121.625C286.985 117.612 286.694 113.656 286.135 109.794Z" fill="#FF642C"/>
<path d="M286.135 109.794C282.982 106.664 279.597 103.593 275.979 100.603C268.94 94.809 261.041 89.341 252.246 84.758C243.474 80.151 233.911 76.312 223.79 73.52C223.197 73.369 222.592 73.229 221.998 73.078C221.719 73.52 221.428 73.974 221.172 74.439C219.508 77.429 218.112 80.64 217.123 84.048C215.273 90.854 215.029 98.404 217.472 105.454C219.88 112.574 224.219 118.856 228.082 125.22C232.061 131.549 235.19 138.32 237.168 144.963C239.169 151.629 240.169 158.191 240.472 164.333C240.763 170.476 240.414 176.211 239.518 181.353C239.425 181.993 239.32 182.633 239.227 183.261C239.088 183.877 238.96 184.494 238.832 185.099C238.553 186.309 238.32 187.484 238.041 188.624C237.715 189.752 237.401 190.834 237.098 191.905C236.935 192.428 236.784 192.952 236.644 193.464C236.458 193.964 236.283 194.453 236.097 194.942C235.725 195.989 235.364 196.99 234.992 197.943C234.573 198.117 234.154 198.28 233.724 198.432C234.131 197.222 234.504 195.931 234.911 194.558C235.051 194.081 235.202 193.581 235.353 193.08C235.469 192.568 235.585 192.045 235.714 191.521C235.958 190.462 236.202 189.38 236.47 188.264C236.691 187.135 236.854 185.96 237.064 184.774C237.157 184.169 237.262 183.576 237.366 182.959C237.424 182.342 237.494 181.714 237.564 181.086C238.192 176.037 238.274 170.441 237.762 164.508C237.25 158.586 236.075 152.304 233.981 145.975C231.887 139.623 228.85 133.376 224.86 127.221C220.986 121.009 216.39 114.563 213.715 106.722C213.052 104.779 212.621 102.743 212.226 100.742C212.11 99.718 211.982 98.706 211.865 97.694C211.783 96.694 211.795 95.67 211.76 94.669C211.783 90.644 212.411 86.711 213.482 82.989C214.61 79.278 216.193 75.822 218.066 72.623C218.148 72.483 218.241 72.344 218.334 72.204C211.563 70.692 204.804 69.726 198.161 69.296C192.17 79.755 187.132 91.924 183.176 105.047C182.013 108.607 181.222 112.225 180.256 115.738C179.872 117.518 179.488 119.275 179.104 121.032C178.906 121.904 178.72 122.777 178.534 123.65C178.371 124.534 178.22 125.395 178.069 126.268C177.766 128.013 177.464 129.735 177.162 131.433C176.906 133.155 176.696 134.853 176.464 136.54C175.952 139.902 175.731 143.218 175.417 146.452C174.323 159.401 174.765 171.162 175.661 180.97C176.313 188.136 177.337 194.256 178.267 199.154C177.906 199.026 177.546 198.898 177.185 198.77C175.987 194.023 174.672 188.125 173.683 181.215C172.287 171.361 171.345 159.448 172.078 146.232C172.31 142.94 172.45 139.554 172.892 136.11C173.09 134.4 173.264 132.655 173.497 130.898C173.776 129.153 174.044 127.396 174.335 125.616C174.474 124.732 174.614 123.836 174.765 122.94C174.951 122.044 175.126 121.148 175.312 120.253C175.684 118.461 176.068 116.658 176.441 114.832C177.395 111.237 178.186 107.538 179.384 103.908C183.212 91.169 188.249 79.314 194.252 69.099C194.02 69.087 193.798 69.076 193.565 69.064C189.098 68.924 184.689 69.064 180.396 69.436C180.256 70.052 180.105 70.657 179.931 71.274C178.314 77.021 175.161 82.512 171.298 87.515C167.447 92.552 162.933 97.206 158.559 102.022C149.81 111.608 142.551 121.695 137.606 131.723C133.604 139.727 131.196 147.661 130.044 154.851C129.416 153.467 128.834 152.059 128.299 150.628C129.358 144.206 131.37 137.261 134.582 130.292C139.363 119.728 146.681 109.153 155.628 99.358C160.072 94.46 164.551 89.935 168.309 85.188C172.079 80.476 175.08 75.485 176.732 70.308C176.778 70.145 176.825 69.971 176.872 69.796C172.893 70.261 169.007 70.924 165.25 71.762C152.371 74.647 141.016 79.568 131.547 85.211C132.234 83.792 132.978 82.407 133.769 81.035C142.541 75.858 152.848 71.356 164.494 68.506C168.764 67.459 173.208 66.644 177.78 66.086C178.478 62.305 178.536 58.524 178.106 55.01C177.664 51.439 176.721 48.111 175.454 45.156C176.129 44.877 176.803 44.633 177.49 44.388C178.991 47.424 180.154 50.868 180.794 54.614C181.388 58.104 181.515 61.885 181.039 65.736C185.157 65.352 189.369 65.178 193.65 65.271C194.616 65.294 195.582 65.329 196.547 65.364C196.698 65.143 196.827 64.91 196.978 64.689C200.561 59.105 204.4 54.079 208.309 49.67C211.322 46.238 214.475 43.248 217.535 40.607C218.431 40.747 219.303 40.886 220.187 41.061C216.941 44.074 213.579 47.471 210.368 51.427C206.924 55.65 203.55 60.397 200.363 65.585C207.087 66.062 213.917 67.086 220.734 68.668C221.967 67.027 223.282 65.48 224.643 64.026C227.098 61.478 229.808 59.337 232.577 57.476C233.287 57.046 234.019 56.638 234.729 56.22L235.788 55.603L236.882 55.068C237.615 54.731 238.336 54.382 239.046 54.044C239.791 53.753 240.524 53.474 241.245 53.183C243.246 52.415 245.259 51.81 247.236 51.357C248.213 51.939 249.167 52.543 250.11 53.172C247.516 53.754 244.863 54.58 242.245 55.708C241.571 55.999 240.884 56.29 240.197 56.592C239.545 56.929 238.871 57.278 238.196 57.639L237.195 58.162L236.218 58.779C235.578 59.186 234.927 59.593 234.264 60.012C231.751 61.827 229.285 63.898 227.074 66.317C226.155 67.364 225.259 68.458 224.398 69.586C224.538 69.621 224.689 69.656 224.829 69.691C235.253 72.565 245.084 76.578 254.042 81.406C263.023 86.222 271.051 91.981 278.136 98.042C280.614 100.171 282.964 102.335 285.198 104.522C285.565 106.257 285.88 108.014 286.135 109.794Z" fill="#A04C27"/>
</svg>
